<svg xmlns="http://www.w3.org/2000/svg" viewBox="0 0 100 100" role="img" aria-label="Coding guidelines">
  <rect width="100" height="100" rx="16" fill="#DFC489"/>
  <!-- the hand-laid wash, wider than the word and not a rectangle -->
  <path d="M7 47c0-13 9-19 22-20s34-4 51-2 15 9 14 21-4 20-19 21-35 2-49 1S7 60 7 47z"
        fill="#EEEBDD" transform="rotate(-3 50 50)"/>
  <path d="M12 47c0-10 7-14 18-15s28-3 42-2 12 7 11 16-3 15-15 16-29 2-40 1S12 55 12 47z"
        fill="#D5D4C3" transform="rotate(-3 50 50)"/>
  <!-- the word it was laid over -->
  <rect x="21" y="41" width="55" height="13" rx="2" fill="#26241B" transform="rotate(-3 50 50)"/>
</svg>
